<?xml version="1.0" standalone="no"?>
<!DOCTYPE svg PUBLIC "-//W3C//DTD SVG 20010904//EN"
 "http://www.w3.org/TR/2001/REC-SVG-20010904/DTD/svg10.dtd">
<svg version="1.0" xmlns="http://www.w3.org/2000/svg"
 width="1840.000000pt" height="1840.000000pt" viewBox="0 0 1840.000000 1840.000000"
 preserveAspectRatio="xMidYMid meet">
<metadata>
Created by potrace 1.14, written by Peter Selinger 2001-2017
</metadata>
<g transform="translate(0.000000,1840.000000) scale(0.100000,-0.100000)"
fill="#000000" stroke="none">
<path d="M6198 12715 c-2 -2 -32 -6 -68 -10 -36 -3 -72 -8 -80 -10 -8 -2 -31
-7 -50 -10 -50 -8 -186 -43 -245 -62 -27 -10 -52 -18 -55 -18 -8 -2 -60 -23
-105 -42 -317 -135 -641 -401 -878 -724 -14 -18 -26 -36 -63 -99 -15 -25 -34
-51 -41 -58 -7 -7 -13 -22 -13 -32 0 -10 -4 -20 -8 -22 -10 -4 -116 -227 -117
-248 -1 -6 -33 -106 -42 -130 -3 -8 -7 -20 -9 -27 -1 -6 -7 -35 -14 -65 -12
-54 -13 -60 -30 -157 -29 -160 -31 -505 -4 -651 2 -14 7 -41 10 -60 10 -67 12
-75 29 -140 9 -36 18 -72 20 -80 9 -41 81 -225 120 -305 75 -153 195 -334 299
-449 99 -109 188 -195 271 -261 28 -22 52 -43 55 -46 14 -18 209 -142 287
-182 99 -51 259 -117 283 -117 9 0 20 -4 26 -9 5 -4 32 -14 59 -21 79 -19 119
-28 155 -35 14 -3 34 -7 45 -9 19 -4 114 -15 185 -22 50 -5 331 -5 355 0 11 2
53 7 94 10 41 4 77 9 81 11 4 2 29 7 56 11 27 3 53 8 57 11 5 3 21 7 37 9 38
7 224 67 285 94 89 38 159 73 223 112 34 21 67 38 72 38 6 0 10 4 10 8 0 4 15
16 33 27 17 10 37 24 43 29 6 6 22 18 34 26 70 47 225 190 331 306 144 158
293 398 369 596 30 77 78 232 86 278 3 14 7 32 10 39 3 8 7 34 10 57 3 23 7
53 10 65 10 47 25 272 25 374 0 38 -19 237 -26 275 -2 14 -7 41 -9 60 -3 19
-10 50 -15 68 -5 17 -8 32 -6 32 2 0 -2 18 -10 39 -7 22 -11 41 -9 44 3 3 1
13 -4 24 -6 10 -25 61 -42 113 -63 184 -208 442 -325 577 -5 6 -32 37 -60 69
-98 112 -217 224 -329 307 -28 21 -58 44 -66 51 -63 51 -378 216 -413 216 -7
0 -18 5 -25 12 -7 7 -12 8 -12 4 0 -5 -11 -1 -25 8 -14 9 -25 14 -25 11 0 -2
-12 0 -27 6 -16 6 -35 12 -43 14 -8 2 -42 10 -75 18 -56 14 -134 29 -230 43
-41 7 -461 14 -467 9z m382 -530 c172 -20 333 -67 481 -140 95 -47 259 -152
259 -166 0 -5 5 -9 10 -9 24 0 222 -198 280 -280 13 -19 28 -39 33 -45 23 -27
95 -145 89 -145 -4 0 -2 -4 3 -8 15 -11 82 -161 110 -245 48 -151 69 -296 69
-487 0 -178 -19 -315 -61 -451 -9 -30 -17 -56 -18 -59 -1 -3 -7 -18 -13 -33
-7 -16 -12 -31 -12 -33 0 -13 -90 -184 -124 -239 -90 -140 -247 -312 -371
-405 -33 -25 -62 -48 -65 -51 -13 -16 -220 -129 -236 -129 -7 0 -14 -4 -16 -8
-4 -9 -213 -78 -278 -91 -128 -26 -410 -35 -540 -17 -78 10 -233 47 -247 58
-7 5 -17 7 -22 4 -5 -4 -12 -2 -16 4 -3 5 -13 10 -21 10 -15 0 -205 88 -214
99 -3 3 -21 15 -40 25 -121 65 -314 238 -420 376 -19 25 -37 47 -40 50 -15 15
-50 71 -50 80 0 5 -4 10 -8 10 -7 0 -100 178 -122 235 -32 81 -66 202 -75 265
-4 24 -8 48 -11 51 -2 4 -6 44 -9 90 -2 46 -5 84 -6 84 0 0 -2 39 -3 88 0 48
1 87 4 87 3 0 5 21 6 48 1 67 13 141 38 252 27 119 105 298 177 410 75 115
130 183 228 281 82 81 209 185 272 224 76 46 258 132 299 140 3 1 37 11 75 22
86 26 162 41 263 49 42 4 78 7 79 8 5 4 213 -3 263 -9z"/>
<path d="M16547 12714 c-1 -1 -45 -4 -97 -8 -52 -4 -104 -9 -115 -11 -11 -2
-38 -6 -60 -9 -22 -3 -64 -10 -93 -16 -30 -7 -61 -13 -70 -15 -9 -2 -17 -4
-17 -5 0 -1 -8 -3 -18 -5 -92 -17 -361 -131 -482 -203 -179 -106 -402 -300
-551 -477 -153 -182 -311 -466 -365 -655 -7 -25 -14 -49 -15 -55 -17 -61 -37
-133 -39 -145 -1 -8 -6 -35 -10 -60 -4 -25 -9 -54 -11 -65 -13 -67 -19 -172
-19 -330 1 -227 10 -317 51 -487 2 -10 6 -26 8 -36 21 -93 83 -268 121 -343
13 -26 21 -49 18 -53 -4 -3 -2 -6 3 -6 5 0 23 -26 39 -57 17 -32 33 -59 38
-61 4 -2 7 -8 7 -13 0 -12 81 -129 148 -214 76 -97 270 -288 372 -367 140
-108 294 -198 450 -263 93 -38 239 -85 267 -85 13 0 23 -5 23 -11 0 -5 4 -8 8
-5 4 3 28 0 53 -5 48 -12 81 -17 149 -24 25 -3 59 -7 75 -10 45 -7 302 -7 370
0 86 9 115 12 155 19 30 5 46 9 100 21 3 1 21 5 40 9 100 23 329 110 430 164
133 71 175 96 178 104 2 4 8 8 13 8 10 0 103 62 107 73 2 4 10 7 18 7 8 0 14
4 14 8 0 4 12 15 28 24 15 9 39 27 53 40 14 13 50 42 80 65 29 23 67 55 83 72
l30 31 -45 41 c-24 22 -58 52 -75 67 -48 42 -194 174 -226 205 -34 32 -51 30
-94 -11 -68 -66 -225 -177 -324 -228 -30 -16 -56 -32 -58 -36 -2 -5 -7 -8 -12
-8 -4 0 -34 -12 -66 -27 -33 -15 -61 -28 -64 -29 -3 0 -18 -6 -35 -13 -16 -7
-37 -14 -45 -16 -8 -2 -36 -10 -62 -18 -27 -8 -48 -13 -48 -10 0 3 -7 0 -15
-7 -8 -7 -15 -10 -15 -6 0 3 -11 1 -24 -3 -41 -16 -147 -25 -296 -25 -125 -1
-263 9 -280 19 -3 2 -25 6 -50 10 -24 4 -53 12 -65 17 -11 6 -21 11 -22 10 -3
-2 -7 -1 -20 3 -5 1 -23 6 -41 10 -18 4 -35 12 -38 16 -3 5 -12 9 -21 9 -23 0
-222 102 -284 146 -78 55 -214 169 -257 216 -20 23 -44 48 -53 57 -8 9 -33 39
-55 66 -21 28 -42 52 -46 53 -5 2 -8 9 -8 16 0 7 -9 22 -21 35 -57 61 -227
456 -205 478 3 3 1 14 -4 24 -9 16 -13 38 -27 139 -2 19 -6 102 -7 183 -3 195
17 333 76 517 23 72 107 253 120 258 4 2 8 8 8 13 0 9 47 87 60 99 3 3 18 23
34 45 72 98 286 308 330 324 6 2 13 7 16 11 11 16 133 90 212 128 93 45 235
95 318 111 97 20 103 21 175 28 119 12 379 4 406 -13 4 -2 24 -6 45 -10 68
-10 271 -82 366 -130 117 -58 329 -196 358 -233 3 -3 27 -23 53 -45 l49 -39
36 35 c61 58 114 107 180 166 35 31 86 79 115 105 l52 48 -51 47 c-29 27 -66
59 -84 72 -17 14 -37 30 -43 36 -64 58 -281 199 -411 268 -118 62 -363 158
-396 155 -3 0 -18 4 -33 10 -50 19 -202 46 -322 58 -49 4 -224 10 -228 7z"/>
<path d="M0 10659 l0 -2009 970 0 970 0 1 23 c3 115 0 489 -4 493 -3 4 -324 7
-714 8 l-708 1 0 1747 0 1746 -257 0 -258 -1 0 -2008z"/>
<path d="M2848 12656 c-2 -6 -4 -909 -3 -2006 l1 -1995 257 -3 c202 -2 257 0
258 10 1 17 1 3933 0 3975 l-1 31 -254 0 c-180 0 -256 -4 -258 -12z"/>
<path d="M9386 12661 c-2 -3 -3 -907 -3 -2008 l0 -2003 258 0 257 0 0 1441 c0
792 2 1442 4 1445 5 4 108 -174 108 -187 0 -5 5 -9 10 -9 6 0 10 -4 10 -10 0
-5 13 -31 29 -58 15 -26 39 -68 53 -93 31 -55 86 -149 99 -169 5 -8 33 -58 63
-110 29 -52 94 -166 144 -253 51 -88 92 -163 92 -168 0 -5 3 -9 8 -9 4 0 12
-10 18 -23 17 -36 74 -136 119 -212 23 -38 53 -90 66 -115 13 -25 29 -52 35
-60 6 -8 24 -37 39 -65 14 -27 40 -72 56 -100 16 -27 35 -61 42 -75 6 -14 17
-31 24 -38 7 -7 13 -20 13 -28 0 -8 3 -14 8 -14 4 0 12 -10 18 -23 23 -49 59
-112 67 -115 4 -2 7 -8 7 -12 0 -5 45 -86 100 -181 55 -94 100 -173 100 -175
0 -2 13 -25 29 -51 16 -27 42 -71 58 -98 27 -48 122 -214 191 -333 18 -32 37
-67 44 -79 11 -23 13 -23 238 -23 l227 0 -1 2008 -1 2007 -253 1 c-142 1 -255
-2 -258 -7 -3 -5 -5 -649 -5 -1430 0 -1171 -3 -1418 -14 -1403 -13 20 -39 65
-88 154 -17 30 -41 72 -54 92 -13 21 -23 41 -23 45 0 3 -6 14 -14 22 -7 9 -27
41 -43 71 -53 98 -113 203 -170 297 -24 40 -43 75 -43 78 0 3 -12 24 -26 47
-40 63 -134 227 -134 234 0 3 -13 24 -28 47 -16 23 -36 58 -46 77 -10 19 -28
53 -41 75 -41 69 -59 99 -80 137 -11 21 -70 124 -132 230 -61 106 -120 209
-131 228 -11 19 -88 153 -171 298 -83 145 -151 267 -151 273 0 5 -4 9 -10 9
-5 0 -10 6 -10 13 0 7 -6 19 -12 26 -7 6 -13 15 -13 19 -1 10 -56 104 -73 125
-8 9 -11 17 -6 17 5 0 5 4 -1 8 -5 4 -21 27 -34 52 -13 25 -30 52 -37 61 -8 8
-14 23 -14 32 0 9 -3 17 -7 17 -5 0 -15 13 -25 29 l-16 29 -231 0 c-128 -1
-233 -4 -235 -7z"/>
<path d="M13070 10658 l0 -2008 258 2 257 3 0 2005 0 2005 -257 1 -258 1 0
-2009z"/>
<path d="M11890 6692 l0 -620 53 2 52 1 0 615 0 615 -52 3 -53 3 0 -619z"/>
<path d="M14594 6693 l1 -618 48 -1 c26 -1 50 3 53 8 4 6 8 1040 4 1211 0 14
-9 17 -53 17 l-53 0 0 -617z"/>
<path d="M12950 7245 c-81 -23 -90 -27 -90 -37 0 -5 -4 -7 -8 -4 -11 6 -81
-58 -109 -99 -29 -44 -45 -100 -48 -168 -4 -126 60 -227 175 -279 75 -34 109
-46 114 -40 3 3 6 -1 6 -8 0 -7 3 -11 6 -8 9 9 144 -40 190 -69 47 -30 84 -79
88 -117 1 -14 5 -28 8 -31 10 -10 -2 -69 -22 -109 -23 -46 -104 -107 -145
-110 -14 0 -25 -4 -25 -8 0 -10 -110 -3 -155 10 -55 16 -145 84 -145 109 0 7
-3 13 -6 13 -8 0 -44 -20 -62 -36 -9 -7 -26 -20 -36 -27 -18 -13 -16 -16 30
-62 102 -99 250 -140 397 -110 121 25 214 91 264 187 39 75 43 192 9 263 -47
99 -109 141 -297 205 -135 45 -221 95 -246 144 -36 67 -20 172 34 228 93 97
314 86 391 -19 l20 -27 38 32 c22 18 45 38 52 43 11 9 6 18 -25 46 -72 67
-167 100 -283 101 -41 0 -95 -6 -120 -13z"/>
<path d="M8366 7232 c-9 -16 -10 -1141 -1 -1150 4 -4 150 -7 326 -7 315 -1
319 -1 320 20 0 11 2 33 3 49 1 17 -4 30 -12 34 -8 3 -130 5 -270 6 l-256 1 0
520 0 520 -31 6 c-16 3 -38 2 -47 -3 -10 -5 -18 -3 -20 4 -3 9 -6 9 -12 0z"/>
<path d="M16433 7198 c-28 -14 -41 -70 -23 -103 16 -30 63 -47 93 -36 35 13
50 38 49 77 -2 60 -61 90 -119 62z"/>
<path d="M15928 7041 c-2 -9 -3 -57 -3 -107 1 -102 10 -93 -92 -95 -40 -1 -63
-5 -64 -13 -2 -13 -2 -68 0 -78 1 -5 36 -8 79 -8 l78 0 0 -232 c-1 -128 2
-260 7 -292 8 -67 39 -116 88 -142 41 -21 141 -24 196 -6 43 14 44 15 42 56
-3 54 -5 57 -37 45 -83 -32 -159 -10 -178 52 -5 19 -10 142 -9 274 l0 240 110
5 110 5 0 45 -1 45 -44 2 c-24 2 -45 5 -48 8 -3 2 -12 1 -21 -4 -9 -5 -36 -6
-61 -2 l-45 6 -1 98 c0 53 -4 100 -8 104 -4 4 -27 8 -51 8 -32 1 -44 -2 -47
-14z"/>
<path d="M9380 6847 c-68 -25 -120 -51 -120 -59 0 -4 -5 -8 -11 -8 -26 0 -125
-132 -134 -180 -2 -11 -7 -24 -10 -30 -3 -5 -7 -46 -9 -92 -6 -133 38 -243
127 -324 153 -137 392 -132 541 11 l49 47 -24 22 c-58 51 -54 51 -102 4 -60
-60 -124 -85 -208 -82 -100 3 -189 56 -231 138 -24 45 -24 46 -34 97 l-6 36
313 -1 314 0 1 45 c3 109 -38 219 -104 284 -36 36 -114 82 -156 92 -40 9 -171
10 -196 0z m210 -110 c41 -19 80 -51 80 -66 0 -6 4 -11 9 -11 13 0 43 -95 39
-122 l-3 -23 -252 0 c-139 0 -253 3 -253 8 0 4 5 29 12 55 9 36 25 60 66 100
30 30 67 55 83 59 16 3 32 9 35 14 8 14 146 3 184 -14z"/>
<path d="M10328 6855 c-2 -2 -20 -5 -41 -8 -20 -3 -45 -11 -54 -18 -9 -8 -17
-12 -19 -9 -4 6 -124 -80 -124 -90 0 -3 -8 -15 -17 -26 -25 -27 -65 -116 -66
-147 -1 -15 -4 -27 -7 -27 -8 0 -5 -121 4 -160 40 -171 213 -302 391 -294 108
4 190 37 243 98 17 20 33 36 36 36 3 0 3 -51 1 -112 -5 -170 -47 -247 -159
-292 -48 -20 -73 -23 -145 -21 -102 3 -175 32 -240 94 l-41 39 -40 -41 -41
-42 42 -37 c45 -39 118 -78 183 -98 76 -24 252 -20 316 7 8 3 17 7 20 8 22 5
75 41 109 74 48 47 88 126 97 196 4 28 7 230 8 451 l1 400 -35 3 c-19 1 -36 4
-39 6 -2 3 -12 -1 -20 -9 -12 -11 -16 -30 -15 -65 1 -28 1 -51 0 -51 -2 0 -23
18 -47 41 -65 60 -139 91 -226 94 -40 1 -73 1 -75 0z m184 -119 c55 -24 106
-73 136 -130 22 -43 26 -64 26 -136 1 -104 -13 -148 -67 -203 -57 -59 -124
-90 -201 -92 -114 -4 -210 56 -263 163 -23 48 -28 69 -27 132 0 88 23 145 79
203 33 34 115 85 115 72 0 -3 8 -2 18 4 25 14 140 6 184 -13z"/>
<path d="M11250 6853 c-62 -10 -138 -37 -182 -66 -26 -18 -47 -35 -46 -38 2
-3 16 -22 32 -42 l29 -36 41 28 c63 44 120 59 210 57 51 -2 81 -7 84 -14 2 -7
9 -12 16 -12 25 0 67 -76 73 -132 l5 -54 -78 -1 c-201 -4 -314 -34 -383 -102
-29 -29 -67 -91 -55 -91 4 0 2 -6 -3 -12 -6 -7 -9 -39 -6 -71 8 -123 102 -205
244 -211 60 -3 141 13 178 35 28 16 91 80 91 92 0 5 4 5 10 2 5 -3 8 -19 6
-35 -2 -16 -1 -32 3 -36 3 -3 7 -10 7 -15 1 -5 2 -13 3 -18 0 -4 23 -8 51 -8
l49 1 -5 66 c-3 36 -6 169 -7 295 -2 216 -4 233 -25 276 -19 39 -102 132 -102
114 0 -3 -14 2 -31 11 -30 15 -154 25 -209 17z m254 -469 c-1 -145 -94 -236
-236 -229 -95 4 -153 47 -162 120 -13 100 61 154 234 172 30 3 56 6 57 7 1 1
26 1 55 1 l53 -1 -1 -70z"/>
<path d="M13908 6855 c-1 -2 -19 -6 -39 -9 -99 -15 -212 -108 -263 -216 -27
-58 -31 -76 -32 -163 -2 -105 13 -167 55 -226 12 -16 21 -32 21 -35 0 -14 78
-77 129 -104 178 -95 403 -44 526 119 14 19 46 88 50 108 2 9 4 16 5 16 4 0
10 45 13 95 11 184 -117 364 -288 405 -32 8 -171 16 -177 10z m182 -118 c178
-78 223 -351 83 -502 -92 -99 -276 -108 -382 -19 -160 135 -132 420 51 513 51
26 66 29 135 26 43 -1 94 -10 113 -18z"/>
<path d="M17042 6845 c-115 -35 -200 -104 -249 -203 -33 -68 -33 -68 -40 -163
-17 -247 174 -437 425 -423 168 10 303 111 357 269 33 97 22 233 -27 329 -33
64 -126 147 -196 175 -71 28 -203 35 -270 16z m189 -95 c84 -23 160 -97 189
-184 18 -56 21 -164 4 -204 -7 -18 -13 -35 -13 -37 -1 -15 -33 -64 -60 -91
-49 -50 -115 -76 -191 -77 -36 0 -74 2 -85 6 -122 35 -205 146 -207 277 -1 60
20 170 33 170 4 0 10 8 14 19 10 33 77 90 126 109 56 20 138 26 190 12z"/>
<path d="M18023 6841 c-64 -22 -112 -54 -141 -95 -13 -19 -22 -25 -23 -16 -1
8 -2 29 -3 45 -5 62 -5 62 -38 62 -18 0 -37 2 -43 3 -28 7 -33 -2 -30 -52 2
-29 4 -202 4 -384 l1 -330 53 0 52 1 2 220 c1 239 5 281 33 336 21 40 79 95
119 111 41 17 131 18 170 2 51 -22 68 -40 92 -103 19 -51 21 -77 21 -296 0
-132 2 -247 4 -256 3 -11 17 -15 55 -15 l50 -1 -3 296 c-3 276 -4 299 -24 341
-12 25 -32 58 -46 73 -60 65 -204 92 -305 58z"/>
<path d="M14965 6840 c-10 -16 -10 -487 -1 -555 17 -122 86 -201 191 -221 128
-24 223 3 303 83 38 40 42 42 43 21 1 -13 2 -39 3 -58 l2 -35 54 0 c51 0 54 1
53 25 0 14 -1 186 -2 383 -1 236 -4 356 -11 352 -5 -3 -10 -2 -10 3 0 6 -14 7
-37 1 -21 -4 -40 -7 -43 -6 -3 1 -6 -88 -6 -197 -3 -267 -9 -320 -42 -358 -8
-10 -12 -18 -8 -18 16 0 -53 -64 -88 -82 -80 -41 -203 -25 -246 32 -47 62 -51
89 -53 365 l-2 260 -40 0 c-22 0 -43 4 -46 9 -4 4 -10 3 -14 -4z"/>
<path d="M16423 6471 c-1 -201 1 -374 3 -383 4 -13 15 -16 52 -15 l47 2 3 382
2 381 -53 0 -54 -1 0 -366z"/>
<path d="M2 6633 l3 -108 3435 0 3435 0 1 108 2 107 -3439 0 -3440 0 3 -107z"/>
</g>
</svg>
